<svg version="1.1" xmlns="http://www.w3.org/2000/svg" xmlns:xlink="http://www.w3.org/1999/xlink" width="65.56961" height="190.36541" viewBox="0,0,65.56961,190.36541"><g transform="translate(-188.00008,-81.95013)"><g data-paper-data="{&quot;isPaintingLayer&quot;:true}" fill-rule="nonzero" stroke="none" stroke-width="0.95" stroke-linecap="butt" stroke-linejoin="miter" stroke-miterlimit="10" stroke-dasharray="" stroke-dashoffset="0" style="mix-blend-mode: normal"><g data-paper-data="{&quot;index&quot;:null}"><path d="M216.52927,120.4858c0.5805,-0.2584 -0.3838,0.8037 -0.4769,1.2359c-0.2251,1.0327 -0.9851,1.862 -1.2397,2.6049c-0.2698,0.7866 -0.5586,0.8769 -0.7686,1.5381c-0.2033,0.6431 -0.6526,1.2578 -1.0887,1.7366c-0.874,0.9652 -0.6412,1.197 -1.6881,1.7632c-1.026,0.5557 -1.6796,0.8768 -2.4662,0.7011c-1.1115,-0.248 -2.4729,-1.2274 -2.7607,-2.1556c-0.4541,-1.4544 0.1615,-2.7312 0.798,-4.9105c0.0836,-0.2888 1.6435,-2.1983 1.6159,-2.5156c-0.0332,-0.3952 0.1482,-0.8123 -0.1966,-1.0108c-0.5681,-0.3287 -1.6274,-0.8104 -2.2344,-1.1714c-0.7999,-0.4778 -2.0929,-1.5333 -2.7056,-2.0976c-0.6907,-0.6336 -1.7984,-2.3208 -2.3047,-3.1245c-0.3629,-0.5767 -0.6413,-1.4896 -0.8123,-2.1451c-0.1615,-0.6185 -0.4208,-1.2521 -0.6175,-1.8696c-0.037,-0.1159 -0.0541,-0.2195 -0.0836,-0.3354c-0.2888,-0.1168 -0.6327,0.1539 -0.9015,-0.0294c-0.2318,-0.1568 -0.3876,-0.533 -0.5396,-0.7686c-0.3772,-0.5766 -0.5605,-1.1276 -0.685,-1.7727c-0.1092,-0.5728 -0.3363,-1.5342 0.0295,-2.1033c0.2536,-0.3961 0.9775,-1.0526 1.4525,-0.7638c0.3582,-0.493 0.2423,-1.5399 0.1834,-2.1299c-0.0409,-0.3914 -0.0447,-0.7837 -0.0447,-1.1856c-0.0019,-0.4778 0.0352,-0.4978 0.4674,-0.608c0.8873,-0.2242 2.0321,-0.4968 2.9317,-0.5481c1.1448,-0.0684 2.0416,-0.0409 3.1768,-0.0922c0.9776,-0.0456 1.7442,-0.3714 2.6515,-0.6526c0.6032,-0.1872 1.3822,-0.3249 1.9095,-0.7268c0.4655,-0.3543 0.9015,-0.7704 1.2502,-1.1742c0.2166,-0.2527 0.8255,-1.0573 1.1447,-1.0716c0.0466,0.2404 -0.0665,0.3924 -0.1187,0.5938c-0.0618,0.2327 -0.0561,0.4332 -0.0874,0.6811c-0.0523,0.4161 -0.4199,1.3842 -0.685,1.7005c-0.4987,0.589 -0.8436,0.7866 -1.3708,1.3576c0.3296,-0.2185 0.8369,-0.267 1.2131,-0.419c0.3582,-0.1434 0.7287,-0.2935 1.0982,-0.4075c0.6422,-0.1995 1.1562,-0.4389 1.7537,-0.7249c0.6403,-0.3087 1.3348,-0.5073 1.7205,-1.1666c0.2261,-0.3942 0.3952,-1.7613 0.7068,-2.0301c0.019,0.475 0.2878,0.9832 0.3657,1.4022c0.0618,0.3315 0.1226,0.9756 0.1245,1.3138c0.0085,0.6907 0.1425,1.5181 -0.0542,2.1774c-0.1244,0.4152 -0.0228,0.6802 0.0257,1.1258c0.0465,0.417 -0.076,0.6792 0.0038,1.0953c0.1339,0.6916 0.019,1.0051 0.2916,1.6796c0.0219,0.057 0.0257,0.647 0.02,0.6337c-0.0276,-0.495 0.247,-1.0935 0.3933,-1.5343c0.1643,-0.4902 0.2764,-1.121 0.5339,-1.5437c0.0665,0.9462 -0.4703,1.7784 -0.3753,2.7303c0.0399,0.4161 0.2166,0.7885 0.2964,1.196c0.0703,0.3639 0.1406,0.9301 0.3449,1.2236c-0.0931,-0.6659 0.4788,-1.1419 0.5956,-1.7356c0.134,-0.6888 0.5273,-1.2825 0.5976,-2.0083c0.0522,-0.5434 -0.0143,-1.6388 0.9053,-1.3338c0.5947,0.1947 1.1248,1.4354 1.2236,1.9674c0.0618,0.3411 0.0076,0.8123 0.0095,1.1619c0.0019,0.5605 -0.3524,0.9623 -0.5567,1.4231c-0.265,0.608 -0.3638,0.8759 -0.8977,1.3632c-0.2413,0.2214 -0.5995,0.4655 -0.8949,0.5415c-0.2632,0.0684 -0.5159,-0.171 -0.6755,0.0019c-0.1425,0.1577 0.0589,0.9291 0,1.1495c-0.0969,0.3658 -0.5662,0.5415 -0.5662,0.9443c0,0.7353 -0.2698,1.3728 -0.5681,2.0378c-0.2631,0.5861 -0.5158,1.0782 -0.8312,1.6454c-0.3648,0.6583 0,0 -0.1406,0.8274c-0.1188,0.7002 0.1729,0.6014 0.4009,1.2502c0.3372,0.9576 0.6042,1.4573 0.892,1.6236" fill="#d8ad8c"></path><g fill="#010101"><g><path d="M199.17187,103.6964c-0.0095,0.1112 -0.3762,0.152 -0.3734,0.0998c0.1074,-1.3661 -0.3268,-2.7702 0,-4.1278c0.0238,-0.0921 0.3876,-0.1463 0.3677,-0.0646c-0.3249,1.3443 0.1092,2.7398 0.0057,4.0926z"></path><path d="M206.57137,108.1111c0.0523,-0.0922 0.3952,-0.114 0.3658,-0.0646c-0.4104,0.7248 -1.369,1.652 -0.9633,2.5659c0.3002,0.6783 0.9775,0.4532 1.5494,0.7078c0.0409,0.018 -0.2508,0.171 -0.3486,0.1263c-0.6194,-0.2745 -1.4877,-0.0114 -1.6274,-0.9243c-0.1444,-0.9453 0.5938,-1.6483 1.0241,-2.4111z"></path><path d="M207.46537,110.8775c-0.1036,-0.019 0.2175,-0.1606 0.304,-0.1454c0.455,0.0855 1.139,0.628 1.5884,0.2936c0.4455,-0.3316 0.3306,-0.8911 -0.0219,-1.2369c-0.0579,-0.057 0.2803,-0.1948 0.3487,-0.1264c0.5139,0.5035 0.4047,1.1875 -0.2508,1.483c-0.7486,0.3382 -1.2521,-0.134 -1.9684,-0.2679z"></path><path d="M206.27687,118.7074c-0.0465,-0.0247 0.2546,-0.1777 0.3506,-0.1264c1.766,0.9415 3.4342,0.6945 5.149,-0.285c0.0665,-0.0389 0.4436,-0.0788 0.284,0.0114c-1.8895,1.0811 -3.7876,1.463 -5.7836,0.4z"></path><path d="M198.79187,103.6166c-0.0057,-0.1045 0.3676,-0.1662 0.3714,-0.0997c0.3059,6.3564 1.8354,11.5168 7.505,15.0641c0.0504,0.0314 -0.2574,0.1834 -0.3486,0.1264c-5.6725,-3.5483 -7.2181,-8.6726 -7.5278,-15.0908z"></path><path d="M212.05957,118.3074c-0.0646,0.0437 -0.4399,0.0903 -0.2841,-0.0114c4.9096,-3.229 6.7298,-7.6646 7.2343,-13.3085c0.0114,-0.1121 0.3762,-0.1501 0.3714,-0.0998c-0.512,5.7209 -2.3892,10.1764 -7.3216,13.4197z"></path><path d="M216.68227,113.5774c0.0019,-0.1083 0.3733,-0.1587 0.3733,-0.0998c-0.0294,1.406 0.7553,2.546 1.2863,3.7924c0.0276,0.0675 -0.3325,0.19 -0.3714,0.0998c-0.533,-1.2464 -1.3186,-2.3874 -1.2882,-3.7924z"></path><path d="M208.21587,122.9681c-0.0257,0.0941 -0.3876,0.1435 -0.3677,0.0656c0.2546,-0.9234 0.818,-2.983 -0.0332,-3.7373c-0.058,-0.0504 0.2745,-0.1919 0.3486,-0.1264c0.8759,0.7743 0.3173,2.8301 0.0523,3.7981z"></path><path d="M218.78077,107.5002c-0.0465,-0.0266 0.2565,-0.1795 0.3506,-0.1254c1.3566,0.7505 2.3845,-2.1071 2.5384,-3.0371c0.1054,-0.6232 0.1748,-1.3699 -0.0998,-1.9665c-0.1833,-0.3952 -1.1286,-1.7186 -1.3765,-0.8056c-0.0276,0.0921 -0.3876,0.1434 -0.3677,0.0646c0.2138,-0.7942 0.9082,-0.7828 1.4545,-0.2385c0.8607,0.8569 1.0022,1.957 0.7049,3.1189c-0.2974,1.1751 -1.5096,3.9273 -3.2044,2.9896z"></path><path d="M198.93817,103.5748c0.0218,0.0836 -0.3468,0.1834 -0.3715,0.0988c-0.2451,-0.9006 -1.1599,0.4769 -1.234,0.912c-0.1017,0.6118 -0.0485,1.2445 0.1244,1.8392c0.1226,0.4123 0.9035,2.6524 1.6369,2.2791c0.0893,-0.0437 0.4341,-0.0608 0.2156,0.0503c-1.4734,0.7467 -2.3104,-2.127 -2.3807,-3.0808c-0.0665,-0.8911 0.1188,-1.7851 0.913,-2.3161c0.4617,-0.3088 0.9196,-0.4275 1.0963,0.2175z"></path></g></g><g fill="#010101"><g><path d="M209.77197,100.9481c-0.5007,0.1985 -1.065,-0.3059 -0.4323,-0.5567c2.7484,-1.0887 5.1994,-0.9633 7.3293,1.2198c0.3325,0.341 -0.6071,0.7391 -0.9092,0.4284c-1.7499,-1.7945 -3.6983,-1.9978 -5.9878,-1.0915z"></path><path d="M204.36737,100.8778c0.6774,-0.0751 0.4456,0.6374 -0.095,0.6973c-1.6606,0.1862 -2.9906,0.4503 -4.3006,1.5551c-0.3658,0.3088 -1.1638,0.0057 -0.6498,-0.4284c1.5124,-1.2749 3.1264,-1.6103 5.0454,-1.824z"></path></g></g></g><g data-paper-data="{&quot;index&quot;:null}"><path d="M200.64907,112.6986c-0.4265,-0.7923 -0.7315,-1.7413 -1.0003,-2.6049c-0.0874,-0.2764 -0.2356,-0.778 -0.3268,-1.1903c-0.0589,-0.2689 -0.1834,0.2061 -1.1676,-0.2223c0.0542,0.7704 0.1245,1.595 0.247,2.3598c0.1131,0.6992 0.1482,1.7603 0.4513,2.4434c0.1387,-0.3306 0.4417,-0.8636 0.4949,-1.2559c0.0428,0.4588 0.3696,0.9338 0.4988,1.3898c0.1444,0.5092 0.2764,1.0745 0.7087,1.4051c-0.0333,-0.551 0.0076,-1.1704 0.2118,-1.6312M197.52077,107.4831c-0.703,0.3952 -1.5751,1.3101 -1.9912,1.9608c0.0114,-0.7457 0.3249,-1.5561 0.5377,-2.2258c0.2175,-0.6755 0.3752,-1.1381 0.247,-1.9124c-0.5045,0.4731 -0.4161,0.2907 -1.9057,1.4811c0.5918,-0.7021 0.5291,-1.4212 0.5196,-2.3285c-0.0114,-0.8521 0.0371,-1.8667 0.019,-2.7027c-0.019,-0.8911 0.2822,-0.7952 1.0108,-1.0678c0.7534,-0.2822 2.2544,-0.8807 2.9963,-0.9624c-0.1111,0.8284 -0.0997,1.7186 -0.056,2.5802c0.0095,0.2043 0.2593,1.083 0.0836,1.2094c-0.191,0.1358 -0.3449,-0.5197 -0.7363,-0.3667c-1.5789,0.6194 -1.5247,3.2708 -0.7248,4.3348M194.99187,101.1941c-0.2356,-0.133 -0.6536,0.1349 -0.894,0.2261c-0.3192,0.1216 -0.6868,0.1387 -1.0222,0.2518c0.0257,-0.3078 0.2575,-0.6166 0.3677,-0.9092c0.1092,-0.2945 0.2508,-0.6897 0.4788,-0.9414c0.5063,-0.5558 0.7258,-0.7116 0.6811,-1.4725c-0.284,0.1605 -0.5415,0.7761 -0.8854,0.8236c-0.3059,-1.4772 0.4513,-3.0362 0.7629,-4.4412c0.1558,-0.6926 0.1377,-1.3832 0.4493,-2.0292c0.2242,-0.4646 0.6251,-0.8598 0.6992,-1.3842c0.191,-1.3613 1.54,-2.3579 2.2154,-3.4656c0.3525,-0.5795 0.9671,-0.9519 1.4716,-1.3775c0.456,-0.3838 0.7144,-0.6279 1.0925,-1.0659c0.4807,-0.5567 1.0858,-1.0573 1.7461,-1.386c0.74,-0.3677 1.5608,-0.8731 2.3531,-1.0944c1.5979,-0.4493 3.2899,-0.5823 4.9296,-0.7923c0.6251,-0.0788 1.2654,0.0969 1.8962,0.0627c0.8854,-0.0475 1.7071,-0.0579 2.5659,0.1036c1.0536,0.1985 2.5175,0.2764 3.496,0.7495c0.7363,0.3581 1.3395,0.5576 2.0093,1.0374c0.7381,0.5301 1.7014,0.6992 2.4329,1.2502c0.2337,0.1748 0.6441,0.4569 0.8037,0.7039c0.1444,0.2233 0.0988,0.495 0.2546,0.7353c0.1986,0.304 0.3021,0.362 0.3525,0.7344c0.0579,0.4256 0.3211,0.5263 0.5139,0.874c0.0988,0.1833 0.1929,0.57 0.1834,0.7932c-0.0133,0.2366 -0.152,0.5415 -0.0523,0.7619c0.0855,0.1805 0.3762,0.3781 0.514,0.5121c0.1729,0.1634 0.3505,0.322 0.4807,0.5206c0.1444,0.2251 0.171,0.4598 0.3429,0.6726c0.2356,0.2926 0.2489,0.3914 0.3781,0.7372c0.2261,0.6241 0.3895,1.2682 0.3895,1.9617c0,0.3344 0.0333,0.685 0,1.0175c-0.0133,0.1235 0.2062,0.247 0.2299,0.3857c0.0219,0.1187 -0.1168,0.1662 -0.0997,0.2831c0.0237,0.2128 -0.171,0.4655 -0.2185,0.7153c-0.0703,0.362 -0.095,0.7154 -0.1359,1.0802c-0.0684,0.6298 -0.2337,1.3224 -0.4731,1.899c-0.1225,0.2917 -0.1748,0.5634 -0.2631,0.855c-0.0988,0.3221 -0.3135,0.6223 -0.4399,0.9301c-0.1225,0.2973 -0.1615,0.683 -0.36,0.9376c-0.2489,0.3192 -0.1558,0.38 -0.2261,0.8028c-0.0684,0.4294 -0.4009,0.8141 -0.5995,1.2074c-0.1406,0.2793 -0.1966,0.8417 -0.3933,1.0184c-0.0427,0.2822 -0.0332,0.5672 -0.056,0.8512c-0.4807,-0.0294 -0.8892,2.736 -0.8854,3.0039c-0.0684,0.0836 -0.0219,0.4437 -0.1093,0.5064c-0.0313,0.703 -0.113,1.2796 -0.1425,1.9845c-0.1168,0.1007 -0.1054,0.2945 -0.1206,0.4674c0,0.2546 0,0.285 0,0.5634c-0.0371,-0.2831 -0.286,-0.1245 -0.4798,-0.3164c-0.2869,-0.284 -0.4284,-0.6403 -0.6726,-0.9633c-0.2669,-0.3543 -0.2983,-0.4845 -0.3182,-0.9348c-0.0133,-0.2935 -0.0257,-0.7752 -0.2242,-0.9975c-0.4598,0.4427 -0.5862,1.1182 -0.3933,1.6939c0.1206,0.3657 0.2061,0.7229 0.2631,1.0963c0.0703,0.4569 0.1226,0.9395 0.4494,1.2901c0.208,0.2213 0.7571,0.5871 0.7657,0.8844c-0.6878,0.0333 -1.7176,-0.6849 -2.2914,-1.0421c-0.5121,-0.3202 -0.9947,-0.5054 -1.0669,-1.1324c-0.0817,-0.6907 0.3249,-1.0422 0.6128,-1.5941c0.1653,-0.3164 0.1301,-0.6812 0.1852,-1.0336c0.0542,-0.342 0.1691,-0.684 0.247,-1.0241c0.0589,-0.2537 0.1653,-0.799 0.2204,-1.0403c0.0589,-0.265 0.4285,-0.0085 0.6926,-0.076c0.4949,-0.1263 0.8084,-0.418 1.1476,-0.8141c0.7001,-0.8151 1.0564,-2.0112 1.1504,-3.0343c0.0371,-0.4228 -0.0152,-1.3576 -0.2413,-1.7186c-0.1672,-0.2641 -0.7856,-1.0393 -1.0944,-1.0478c-0.5386,-0.0143 -0.7942,0.2888 -0.7467,1.6112c0.0114,0.3002 -0.2023,0.4987 -0.2242,0.8018c-0.0199,0.3173 -0.1539,0.5614 -0.1852,0.8654c-0.0447,0.437 -0.1748,0.5149 -0.4228,0.8655c-0.1463,0.208 -0.3971,0.6203 -0.4208,0.8616c-0.3715,-0.7875 -0.5415,-1.9646 -0.495,-2.869c0.0371,-0.7676 0.5292,-1.3129 0.2879,-2.0596c-0.0504,0.5045 -0.3677,0.9139 -0.4883,1.3747c-0.1017,0.3733 -0.0257,1.2578 -0.3677,1.501c-0.4845,-0.2869 -0.2726,-0.9462 -0.3021,-1.3775c-0.019,-0.2518 0.0447,-0.6565 -0.0275,-0.8921c-0.0798,-0.2641 -0.058,-0.5225 -0.0703,-0.8008c-0.0542,-1.0811 -0.0333,-2.2183 -0.0333,-3.307c0,-0.4351 -0.0646,-0.8455 -0.1282,-1.2749c-0.0447,-0.3192 -0.076,-0.9652 -0.2803,-1.2131c0.0076,0.2517 -0.0722,0.4294 -0.2004,0.6431c-0.1283,0.2166 -0.2546,0.6394 -0.4085,0.8455c-0.2005,0.2679 -0.3696,0.2651 -0.6156,0.494c-0.2138,0.1976 -0.4047,0.4598 -0.6403,0.6194c-0.4494,0.3031 -0.8484,0.4047 -1.3338,0.6555c-0.5881,0.304 -1.4402,0.4712 -2.0615,0.6916c-0.3078,0.1102 -0.9985,0.4893 -1.2873,0.3411c0.7144,-0.4522 1.4193,-1.1438 1.7984,-1.8962c0.2061,-0.4066 0.4189,-0.6213 0.4436,-1.0821c0.0219,-0.4208 0.1188,-0.8018 0.0988,-1.2131c-0.4864,0.3496 -0.874,0.855 -1.2692,1.3404c-0.3752,0.4627 -1.4582,1.0032 -2.0073,1.2493c-0.6698,0.3002 -0.8199,0.2926 -1.5922,0.4873c-0.818,0.2052 -0.6831,0.362 -1.5124,0.4209c-2.7531,0.2023 -5.6478,0.1092 -7.8565,1.0953c-0.5472,0.2451 -1.3044,0.4855 -1.8725,0.7268c-0.2451,0.1035 -0.4598,0.2574 -0.703,0.3448c-0.2042,0.0732 -0.7714,0.1026 -0.8331,0.3202" fill="#a15927"></path><g fill="#010101"><g><path d="M216.35737,94.4149c0,-0.132 0.3714,-0.2071 0.3714,-0.0389c0.0076,3.5482 -3.7781,4.3329 -6.6129,5.2411c-0.1378,0.0437 -0.2964,-0.0465 -0.1444,-0.1653c0.5491,-0.4275 4.3747,-5.13 1.4383,-2.9602c-1.3642,1.008 -2.661,1.6017 -4.2712,2.0786c-3.1654,0.9377 -6.4049,0.4845 -9.6112,1.6568c-1.5067,0.552 -3.0096,1.0973 -4.5457,1.5675c-0.0798,0.0247 -0.2565,0.0133 -0.2005,-0.1102c0.6194,-1.4088 1.445,-2.5232 2.4415,-3.6746c2.3988,-2.7692 -0.4227,-0.0532 -1.4953,1.3737c-0.056,0.0741 -0.3781,0.19 -0.36,0.0124c0.7049,-6.9987 4.0099,-14.0885 11.381,-15.9648c0.2242,-0.057 0.2802,0.1463 0.0541,0.2043c-6.611,1.6824 -9.8733,7.7605 -10.8376,13.9982c-0.3638,2.3408 1.1096,-0.6089 1.7148,-1.1267c1.1523,-0.9851 0.6365,-0.6783 1.9133,-1.2359c0.0522,-0.0219 0.3543,-0.0409 0.2489,0.094c-0.7325,0.9348 -1.5238,1.8288 -2.3161,2.717c0.5899,-0.6602 -3.0153,3.6851 -1.6046,3.2034c1.1581,-0.3942 2.3104,-0.8046 3.4571,-1.2293c4.921,-1.7822 12.1182,-0.4075 15.1183,-5.4501c0.0503,-0.0855 0.3819,-0.1805 0.36,-0.0124c-0.2175,1.5371 -0.5396,3.1293 -1.7204,4.2608c1.2226,-1.1742 5.2288,-0.7021 5.2212,-4.4394z"></path><path d="M217.41467,112.2198c-0.0608,-0.1187 0.3002,-0.2356 0.3762,-0.1007c0.855,1.6625 2.5394,2.0653 4.047,2.9431c-0.0997,0.0627 -0.1966,0.1264 -0.2954,0.1891c-2.1964,-1.4725 -2.737,-4.6683 -1.2673,-6.8353c0.0513,-0.076 0.4075,-0.1748 0.36,-0.0123c-0.5035,1.7584 -0.208,3.3126 1.3129,4.4374c0.152,0.1131 -0.1909,0.267 -0.2954,0.1891c-1.5694,-1.16 -1.919,-2.755 -1.3918,-4.5857c0.1197,-0.0038 0.2404,-0.0076 0.3601,-0.0123c-1.4184,2.0881 -0.9101,5.206 1.2093,6.63c0.1596,0.1074 -0.1833,0.2527 -0.2935,0.1891c-1.5647,-0.9139 -3.2405,-1.3167 -4.1221,-3.0315z"></path><path d="M216.35737,94.6002c-0.0485,-0.134 0.3211,-0.2413 0.3714,-0.1007c0.6973,1.918 0.5643,3.7943 0.5567,5.795c-0.0019,0.9595 0.3002,2.4671 0.1672,3.286c0.171,-1.0545 0.4674,-2.0472 0.8113,-3.0571c0.0447,-0.133 0.4228,-0.1805 0.3734,-0.0408c-0.4123,1.2226 -0.7553,2.4063 -0.8664,3.6964c-0.0152,0.1226 -0.3363,0.2033 -0.3753,0.0703c-0.9661,-3.1682 0.1007,-6.5236 -1.0383,-9.6491z"></path><path d="M194.71917,101.082c0.0295,-0.1368 0.4047,-0.1947 0.3753,-0.0408c-0.2413,1.1428 -0.0371,2.3949 -0.0133,3.5558c0.0152,0.7306 -0.115,1.2616 -0.3933,1.9542c-0.3449,0.2489 -0.2575,0.1396 0.2612,-0.3249c0.1577,-0.1444 0.3154,-0.2888 0.4731,-0.4332c0.3116,-0.2746 0.627,-0.5444 0.9443,-0.8104c0.0504,-0.0427 0.3753,-0.1482 0.3363,0.0171c-0.2631,1.1296 -0.5453,2.2582 -0.779,3.3953c-0.0969,0.4513 -0.1852,0.9016 -0.2669,1.3557c-0.3268,0.3049 -0.4551,0.3743 -0.3781,0.208c0.5234,-1.0687 1.2711,-1.9247 2.2895,-2.527c0.1282,-0.076 0.4512,-0.0019 0.2337,0.1264c-1.0279,0.607 -2.0169,1.6606 -2.2582,2.8699c-0.0275,0.134 -0.4009,0.1995 -0.3733,0.0409c0.228,-1.3661 0.5234,-2.717 0.8407,-4.067c0.1539,-0.6593 0.5216,-1.2768 -0.2878,-0.5339c-0.4655,0.4256 -0.8959,0.855 -1.3082,1.3329c-0.0503,0.057 -0.3933,0.1244 -0.3372,-0.0171c0.5491,-1.3709 0.6346,-2.2544 0.5918,-3.7088c-0.0256,-0.7828 -0.1121,-1.6226 0.0494,-2.3931z"></path><path d="M217.32067,82.9256c0.2156,0.0627 -0.095,0.2518 -0.2223,0.2147c-4.9619,-1.4515 -12.8678,-1.7318 -16.7029,2.4653c-0.0912,0.0997 -0.4532,0.0912 -0.3021,-0.0741c3.9567,-4.3301 12.122,-4.0992 17.2273,-2.6059z"></path><path d="M223.93457,89.7305c0.0152,0.152 -0.3601,0.2356 -0.3734,0.1007c-0.152,-1.7148 -0.7343,-3.3393 -2.1356,-4.4289c-1.2863,-1.0032 -2.8072,-1.6036 -4.2807,-2.2743c-0.1615,-0.0751 0.1767,-0.2432 0.2955,-0.1891c3.2651,1.4887 6.1379,2.8234 6.4942,6.7916z"></path><path d="M221.98517,112.8867c0.0133,0.152 -0.3601,0.2356 -0.3696,0.1007c-0.6526,-7.0898 8.5443,-17.3489 1.9627,-23.1315c-0.1111,-0.0969 0.2375,-0.2432 0.343,-0.1501c6.7231,5.908 -2.5954,16.0198 -1.9361,23.1809z"></path><path d="M218.20887,100.6669c-0.0133,-0.153 0.3601,-0.2347 0.3734,-0.0998c0.0646,0.8636 -0.2356,1.6236 -0.2917,2.4729c-0.076,1.1257 0.1634,2.1736 0.5957,3.2005c-0.1245,0.0333 -0.247,0.0665 -0.3715,0.0998c-0.1482,-0.4874 0.4598,-1.2455 0.609,-1.6673c0.7106,-2.0453 0.5861,-4.256 0.341,-6.3735c-0.0171,-0.1511 0.3544,-0.2366 0.3715,-0.0998c0.2261,1.957 0.399,4.0945 -0.2005,6.0097c-0.1482,0.4693 -0.8939,1.5561 -0.7495,2.0311c0.0427,0.1397 -0.3135,0.2347 -0.3715,0.0998c-0.3543,-0.8398 -0.6925,-1.8468 -0.6308,-2.7759c0.0656,-0.9785 0.4009,-1.9067 0.3249,-2.8975z"></path><path d="M197.98247,108.5642c0.0038,-0.1349 0.3762,-0.2071 0.3733,-0.0399c-0.0579,1.8744 0.3059,3.7098 0.4969,5.567c-0.1245,0.0238 -0.2489,0.0475 -0.3734,0.0703c0.1302,-0.7609 0.3582,-1.4801 0.6033,-2.2116c0.0351,-0.1064 0.3249,-0.2166 0.3733,-0.0703c0.4209,1.2987 0.8351,2.5964 1.3376,3.8656c-0.1244,0.0332 -0.2489,0.0665 -0.3714,0.0997c-0.3306,-0.9167 -0.0988,-1.9703 0.3524,-2.8091c0.0627,-0.1169 0.438,-0.1473 0.3487,0.0171c-0.4247,0.7875 -0.6403,1.8335 -0.3306,2.6923c0.0465,0.1339 -0.3173,0.2384 -0.3734,0.0997c-0.5006,-1.2701 -0.9167,-2.5678 -1.3376,-3.8655c0.1245,-0.0238 0.2489,-0.0475 0.3734,-0.0703c-0.247,0.7296 -0.475,1.4497 -0.6033,2.2116c-0.0199,0.113 -0.3581,0.209 -0.3733,0.0703c-0.1938,-1.8839 -0.5567,-3.724 -0.4959,-5.6269z"></path><path d="M194.30687,98.2206c-0.0038,-0.1539 0.3677,-0.2318 0.3715,-0.0997c0.0095,0.2356 0.0446,0.4683 0.056,0.703c0.0057,0.1529 -0.3676,0.2318 -0.3733,0.0997c-0.0095,-0.2356 -0.0447,-0.4674 -0.0542,-0.703z"></path></g></g></g><g data-paper-data="{&quot;index&quot;:null}"><path d="M205.52067,112.9722c0.3287,0.0038 0.5529,0.153 0.9073,0.2166c0.4227,0.076 0.8255,0.1672 1.2597,0.1976c0.6089,0.0437 1.1599,0.0114 1.7518,-0.0161c0.6431,-0.0304 1.2445,0.0104 1.881,-0.0589c0.2745,-0.0295 0.5386,-0.1207 0.8075,-0.1454c0.0465,-0.0038 0.3192,-0.038 0.36,0.0152c0.1264,0.1625 -0.0095,0.2955 -0.0855,0.4009c-0.2185,0.304 -0.209,0.248 -0.6583,0.3097c-0.3287,0.0447 -0.6232,0.1596 -0.9424,0.2299c-0.6935,0.1501 -1.2721,0.152 -2.0017,0.1596c-0.6308,0.0076 -1.2749,-0.0864 -1.9,-0.1643c-0.266,-0.0323 -0.4199,-0.0219 -0.6517,-0.1596c-0.2242,-0.133 -0.0465,-0.1606 -0.2042,-0.3525c-0.1216,-0.1501 -0.2394,-0.2869 -0.3002,-0.4645" fill="#f5f6f6"></path><path d="M206.24457,114.1179c0.0694,-0.2422 0.9225,-0.0009 1.1581,0.0485c0.4921,0.1035 1.0469,0.1539 1.5532,0.1311c1.0336,-0.0494 2.0948,-0.2147 3.0818,-0.4142c-0.3296,0.2954 -0.7714,0.7704 -1.2207,1.0412c-0.4095,0.247 -0.8845,0.513 -1.3357,0.6783c-0.5216,0.19 -1.4402,0.3619 -1.9855,0.1691c-0.3468,-0.1235 -0.7885,-0.4513 -0.874,-0.799c-0.0532,-0.2147 -0.1796,-0.3857 -0.3449,-0.5709c-0.1263,-0.1416 0.0067,-0.0114 0.0257,-0.228" fill="#6c0e0f"></path><g fill="#010101"><g><path d="M212.47567,112.8905c-0.0276,-0.0902 0.3391,-0.1966 0.3714,-0.0997c0.0741,0.2384 0.0969,0.3933 -0.0019,0.6184c-0.0446,0.0998 -0.4009,0.1359 -0.3676,0.0608c0.1035,-0.2394 0.0684,-0.3562 -0.0019,-0.5795z"></path><path d="M204.70087,112.7746c-0.1226,-0.0522 0.2175,-0.189 0.3021,-0.152c2.4766,1.0593 5.1062,0.6916 7.6855,0.2812c0.2593,-0.0418 0.0912,0.1283 -0.0646,0.152c-2.6534,0.4218 -5.377,0.8075 -7.923,-0.2812z"></path><path d="M205.27847,113.0378c-0.0665,-0.0523 0.2631,-0.1976 0.3486,-0.1311c0.7144,0.5614 0.6498,1.386 1.1486,2.0767c1.6492,2.2857 4.5771,-0.6251 5.7798,-1.9352c0.0627,-0.0703 0.4227,-0.113 0.3372,-0.0199c-1.2483,1.3623 -2.5811,2.5764 -4.4583,2.9003c-2.186,0.3753 -1.92,-1.9161 -3.1559,-2.8908z"></path></g></g><g fill="#010101"><g><path d="M206.01467,114.0657c-0.2042,-0.0418 0.1302,-0.2033 0.2318,-0.1815c1.8031,0.3734 3.6252,0.4399 5.3998,-0.1235c0.2185,-0.0684 0.2575,0.0912 0.0428,0.1596c-1.8611,0.59 -3.7782,0.5396 -5.6744,0.1454z"></path></g></g><g fill="#010101"><g><path d="M207.44347,114.1341c0.0817,-0.0532 0.2955,-0.0143 0.1539,0.0788c-0.3448,0.2271 -0.5719,0.5387 -0.7628,0.8987c-0.039,0.0741 -0.2879,0.0988 -0.2299,-0.0076c0.208,-0.3961 0.4645,-0.7229 0.8388,-0.9699z"></path></g></g></g><g data-paper-data="{&quot;index&quot;:null}"><path d="M198.80417,144.2966c0.4902,-0.2945 1.0108,0.2498 1.4269,0.4959c0.5111,0.3049 0.9633,0.3543 1.5238,0.4769c0.6432,0.1415 0.7885,0.2831 0.894,0.9462c0.0712,0.4484 0.2213,0.9975 0.1301,1.4744c-0.1852,0.9614 -0.304,1.4221 -0.3505,2.4519c-0.0238,0.5453 -0.3316,1.482 -0.4209,2.033c-0.0836,0.5102 -0.0218,1.4906 -0.1482,2.0083c-0.2878,1.1723 -0.5405,1.9029 -0.8113,3.0552c-0.2603,1.1134 -0.8151,1.9798 -1.2844,3.0134c-0.2185,0.4845 -0.5206,1.0726 -0.7381,1.5514c-0.2936,0.6498 -0.1615,0.9348 -0.6014,1.3841c-0.7163,0.7315 -0.9671,1.7955 -0.9652,2.7626c0.0019,0.5805 0.0114,1.0536 0.1767,1.6036c0.134,0.4418 0.3287,0.8104 0.3658,1.2578c0.0703,0.8645 -0.6603,2.1062 -0.8759,2.9688c-0.1283,0.5101 -0.191,1.0203 -0.2432,1.538c-0.0219,0.2299 -0.0998,0.4484 -0.0627,0.7049c0.0465,0.3202 0.2185,0.3667 0.3059,0.6536c0.2783,0.9101 0.0864,2.2021 -0.0523,3.1236c-0.2137,1.3975 -0.4455,2.8633 -0.4455,4.294c0,0.7553 0.0152,1.501 -0.0646,2.2392c-0.0722,0.6773 0.0446,1.5551 -0.0722,2.2363c-0.3344,-0.0276 -1.0298,-0.1786 -1.2863,-0.362c-0.2841,-0.2042 -0.4893,-0.7267 -0.703,-1.1001c-0.4456,-0.7733 -1.1001,-1.6767 -1.3842,-2.564c-0.2983,-0.9481 -0.6507,-2.1356 -0.7847,-3.1398c-0.1482,-1.121 0.4826,-1.9646 0.7534,-2.963c0.2745,-1.0042 0.9832,-1.825 1.5399,-2.68c0.5605,-0.8559 0.7372,-1.9351 0.7201,-2.9431c-0.0161,-0.9728 0.1378,-1.8715 0.0912,-2.907c-0.0351,-0.817 0.0646,-1.7242 -0.0057,-2.5222c-0.057,-0.6213 0.1121,-1.0754 0.1729,-1.6825c0.076,-0.779 -0.2223,-1.4639 0,-2.2106c0.2233,-0.7553 0.8408,-2.452 1.0469,-3.2129c0.3411,-1.2559 0.1891,-1.2246 0.8569,-2.2639c0.2299,-0.3581 0.6717,-0.6925 0.7885,-1.0887c0.1302,-0.4455 0.114,-1.1447 0.1767,-1.6036c0.1577,-1.1485 -0.0389,-2.3769 0.0779,-3.5235c0.1862,-1.8345 0.2565,-3.7069 0.2565,-5.5737" fill="#d8ad8c"></path><g fill="#010101"><g><path d="M198.71017,143.7636c0.0057,-0.1691 0.4987,-0.247 0.4968,-0.132c-0.1149,4.1838 -0.4436,8.2925 -1.0279,12.4374c-0.0199,0.1406 -0.5139,0.2356 -0.4921,0.0741c0.5833,-4.123 0.9101,-8.2175 1.0232,-12.3795z"></path><path d="M197.83427,155.2026c0.0722,-0.1159 0.5624,-0.1862 0.455,-0.0133c-2.1337,3.4266 -2.7512,6.251 -2.7018,10.2752c0.0295,2.3712 0.0703,4.7167 -0.1947,7.0727c-0.0171,0.1387 -0.5121,0.2375 -0.4921,0.0722c0.7144,-6.3431 -0.6128,-11.7144 2.9336,-17.4068z"></path><path d="M194.90067,172.6104c0.0703,-0.1397 0.5472,-0.1843 0.4921,-0.0722c-1.4345,2.8319 -3.5122,4.9751 -2.3921,8.3847c0.5624,1.7128 1.273,3.4437 2.1156,5.0397c0.058,0.1093 -0.417,0.2784 -0.4949,0.134c-1.0165,-1.9276 -2.3769,-4.522 -2.4624,-6.7412c-0.1026,-2.6733 1.5893,-4.466 2.7417,-6.745z"></path><path d="M193.80437,180.1382c-0.0504,-0.1283 0.436,-0.2803 0.4968,-0.134c0.5786,1.4754 0.2727,2.9355 0.5548,4.4422c0.1748,0.9424 0.9481,-0.3524 1.0127,-0.7068c0.1264,-0.6811 0.0931,-1.3623 0.1245,-2.052c0.0095,-0.171 0.5006,-0.2451 0.4949,-0.1339c-0.0541,1.1447 0.1112,3.3829 -1.5048,3.6309c-0.6935,0.1054 -0.6498,-0.7847 -0.6678,-1.2464c-0.0456,-1.2987 -0.0295,-2.5717 -0.5111,-3.8z"></path><path d="M194.50927,186.0348c-0.1074,-0.0836 0.3391,-0.2764 0.4636,-0.1833c0.4104,0.3154 0.8892,0.4674 1.406,0.4845c0.3325,0.0114 -0.0447,0.247 -0.2043,0.2413c-0.608,-0.0171 -1.178,-0.1663 -1.6653,-0.5425z"></path><path d="M196.45957,179.1046c0.0133,-0.1406 0.5064,-0.2432 0.4921,-0.076c-0.0741,0.9091 -0.5177,1.7404 -0.5101,2.6628c0.0019,0.1691 -0.495,0.2527 -0.495,0.134c-0.0085,-0.9434 0.4361,-1.7908 0.513,-2.7208z"></path></g></g></g><g data-paper-data="{&quot;index&quot;:null}"><path d="M200.26627,244.7724c1.0393,0.5234 2.1004,1.1457 3.1711,1.7594c0.855,0.4902 2.7046,1.1761 3.0723,2.1432c-2.4434,0.2071 -4.9486,0.7923 -7.3255,1.5732c-0.969,0.3211 -1.3376,1.4402 -1.6235,1.8762c-0.228,0.3439 -0.685,0.2546 -1.3044,0.2527c-0.5253,0 -1.4535,0.2898 -1.9969,0.2708c-1.9817,-0.0599 -4.3453,-1.2113 -3.7477,-3.6034c0.113,-0.455 -0.1596,-0.8037 0.2042,-0.9908c0.342,-0.1796 1.4592,-0.361 1.8392,-0.456c0.8835,-0.2176 1.653,-0.4959 2.4938,-0.7648c0.9015,-0.284 1.9646,-0.7438 2.85,-1.1371c0.5215,-0.2309 1.8886,-0.7515 2.0672,-1.2806M200.31187,252.7115c0.4949,-0.0684 0.8255,-0.0114 1.3414,-0.076c1.6625,-0.2118 3.3326,-1.2084 5.0065,-1.3081c0.7809,-0.0504 4.5068,0.1672 4.1876,-1.3433c-0.5624,-0.0114 -1.3234,-0.3563 -1.8649,-0.4712c-0.6213,-0.134 -1.3841,0.1149 -2.0054,0.2783c-0.7515,0.1967 -1.6711,0.3525 -2.4007,0.5824c-0.9538,0.3021 -1.9057,0.5377 -2.8443,0.8626c-0.2223,0.076 -0.8901,0.132 -1.0925,0.247c-0.2432,0.1387 -0.0114,0.0418 -0.1691,0.2964c-0.1539,0.2546 -0.2707,0.5624 -0.4009,0.8293" fill="#0b1938"></path><path d="M190.52687,248.1544c0.056,0.1672 0.0019,0.3467 0.0351,0.5956c0.0409,0.3154 -0.0332,0.5358 -0.0988,0.8683c-0.1206,0.609 0.2432,1.0355 0.5216,1.5656c0.2337,0.4456 1.0146,0.8892 1.4772,1.0469c0.8997,0.304 1.9076,0.2375 2.8405,0.1872c0.4323,-0.0257 0.874,-0.0485 1.2987,-0.0893c0.2175,-0.0219 0.5643,0.0237 0.7628,-0.0627c0.1615,-0.0722 0.1406,-0.095 0.2242,-0.2689c0.304,-0.6384 0.6071,-1.0925 1.121,-1.5941c0.2651,-0.2574 0.3914,-0.171 0.7714,-0.2726c0.4437,-0.1226 0.798,-0.2451 1.2436,-0.3563c0.3914,-0.0997 1.0165,-0.2631 1.425,-0.3211c0.4826,-0.0627 0.8816,-0.1558 1.3585,-0.2745c0.5766,-0.1406 1.1723,-0.2451 1.7641,-0.3078c0.4693,-0.0504 0.9424,-0.2936 1.4032,-0.2936c0.284,-0.0019 0.4655,0.1463 0.6887,0.2983c0.419,0.2879 0.8873,0.4693 1.3842,0.5738c-0.5786,0.2413 -1.1267,0.1036 -1.7328,0.3173c-0.6365,0.2242 -1.4583,0.4161 -2.1356,0.5719c-0.7106,0.1615 -1.4155,0.4674 -2.1432,0.5767c-0.3021,0.0446 -0.5643,0.1301 -0.8683,0.2023c-0.3287,0.0779 -0.8607,0.0931 -1.1467,0.2689c-0.2318,0.1425 -0.607,0.911 -0.5937,1.1761c1.1096,0.0541 2.2895,-0.0665 3.3307,-0.4551c0.7381,-0.2745 1.4772,-0.4807 2.2325,-0.6678c1.1656,-0.2917 2.5251,0.0836 3.6613,-0.2822c0.5215,-0.1672 0.9614,-0.1225 1.3528,-0.5177c0.2099,-0.2119 0.265,-0.6137 0.5785,-0.609c0.2242,0.0076 0.5995,0.0409 0.8056,0.1283c0.5045,0.208 -0.2042,0.8721 -0.3505,1.254c-0.1729,0.4493 -0.191,1.1409 -0.6422,1.291c-0.4902,0.1672 -1.293,0.3506 -1.8278,0.2527c-0.6213,-0.113 -1.3509,-0.0541 -1.9969,-0.0722c-1.1799,-0.0389 -1.9076,0.4285 -3.0296,0.8503c-0.7714,0.2916 -1.5637,0.5358 -2.3161,0.8512c-0.6289,0.265 -1.2863,0.3154 -1.9541,0.4161c-0.837,0.1263 -1.6065,0.0133 -2.4548,0.0969c-0.894,0.0874 -1.8411,0.1672 -2.7446,0.095c-0.8312,-0.0665 -1.8629,0.2004 -2.6457,-0.1378c-0.2765,-0.1206 -0.4969,-0.1339 -0.7667,-0.2574c-0.5215,-0.2394 -1.102,-0.4826 -1.6406,-0.6755c-0.837,-0.3002 -0.989,-1.0203 -1.2246,-1.8648c-0.1947,-0.6992 -0.3638,-1.1799 -0.3078,-1.8316c0.0466,-0.5273 0.4456,-1.1039 0.6907,-1.6198c0.1187,-0.2508 0.38,-0.4617 0.6175,-0.5918c0.1947,-0.1055 0.8683,-0.21 0.9595,0.0019" fill="#a2c6dd"></path><path d="M212.89747,259.1468c-0.0095,0.1824 0.8521,0.4028 1.0393,0.4826c0.9557,0.4104 1.9057,0.9244 2.8443,1.3823c0.4484,0.2185 0.855,0.4949 1.3376,0.6583c0.4094,0.1397 0.8198,0.2879 1.2074,0.4456c0.3819,0.1539 0.7011,0.3135 1.1191,0.2574c0.3762,-0.056 0.6536,-0.2242 0.9937,-0.36c0.7961,-0.3192 1.4697,-0.8664 2.2753,-1.1467c-0.0143,0.3154 0.1653,0.5938 0.1244,0.894c-0.056,0.418 -0.2935,0.4256 -0.6327,0.5738c-0.5614,0.2432 -1.0887,0.6365 -1.6454,0.9091c-0.5899,0.286 -1.121,0.6584 -1.6862,0.9852c-0.4959,0.2802 -0.969,0.5738 -1.4754,0.8331c-0.2128,0.1064 -0.2726,0.381 -0.3914,0.6033c-0.1206,0.2194 -0.3695,0.5643 -0.3895,0.8113c-0.0598,0.6422 -0.1586,0.9709 -0.6925,1.3661c-0.514,0.3781 -1.0374,0.5766 -1.6511,0.7457c-0.5434,0.1444 -0.8702,0.2917 -1.445,0.3211c-0.835,0.0428 -2.3617,-0.0095 -3.1635,-0.1966c-1.0877,-0.2556 -1.3252,-0.5672 -2.4177,-0.779c-0.4304,-0.0874 -1.444,-0.6546 -1.7832,-0.9443c-0.3657,-0.3097 -0.2926,-0.1815 -0.6621,-0.4969c-0.3192,-0.2707 -0.8294,-0.8512 -1.0593,-1.2074c-0.1928,-0.2983 -0.3382,-0.7477 -0.3268,-1.0982c0.0114,-0.3411 0.1748,-0.419 0.4551,-0.6365c0.2337,-0.1786 0.7885,-0.1397 1.0687,-0.1986c0.7524,-0.1634 1.1343,-0.2004 1.8411,-0.5899c0.3914,-0.2176 0.7296,-0.4921 1.0821,-0.7572c0.3192,-0.2432 0.6973,-0.7068 1.0184,-0.9405c0.5263,-0.38 0.7951,-0.7049 1.3689,-1.0573c0.5083,-0.3116 1.1134,-0.723 1.7072,-0.8199M220.68267,265.5802c-0.1358,0.0466 -0.1311,0.5121 -0.0902,0.6603c0.0684,0.2498 0.209,0.3781 0.4446,0.4189c0.4731,0.0836 1.0279,-0.1843 1.4582,-0.3325c0.3867,-0.1358 0.7629,-0.2717 1.1267,-0.4512c0.6983,-0.3401 1.407,-0.5919 1.9931,-1.1115c0.4541,-0.4028 0.8237,-0.874 1.2892,-1.2635c0.4883,-0.4019 0.3382,-0.9852 0.3638,-1.5637c0.0133,-0.3154 -0.1073,-0.5805 -0.1444,-0.9054c-0.0351,-0.3078 0.0152,-0.5139 -0.1539,-0.7533c-0.1605,-0.2299 -0.0589,-0.3933 -0.0997,-0.6603c-0.0504,-0.3372 -0.2432,-0.4598 -0.5938,-0.3543c-0.4674,0.1415 -0.911,0.4265 -1.2929,0.722c0.2688,0.436 0.3543,0.7961 0.2318,1.3233c-0.058,0.2432 0.0427,0.5235 -0.0114,0.7534c-0.058,0.2432 -0.0447,0.474 -0.1302,0.6925c-0.2118,0.5415 -0.8369,0.6109 -1.3233,0.8721c-0.5254,0.2803 -1.0146,0.6327 -1.5029,0.969c-0.2508,0.171 -0.4712,0.3449 -0.7515,0.475c-0.2517,0.1169 -0.8046,0.2575 -0.8711,0.5396" fill="#0b1938"></path><path d="M204.89557,263.6137c-0.7828,0.1853 -0.2669,1.464 -0.0218,1.8668c0.2574,0.4189 0.3467,0.7315 0.7752,1.0222c0.2527,0.1729 0.5785,0.2821 0.8113,0.4883c0.2669,0.2318 0.3638,0.3429 0.722,0.5025c1.0355,0.4551 1.8126,0.7401 2.9127,1.008c0.7049,0.1729 2.0206,0.4009 2.7464,0.4674c1.4564,0.1387 2.3807,-0.0561 3.6813,-0.7923c0.9519,-0.5377 1.082,-1.4136 1.444,-2.3085c0.1871,-0.4712 0.3952,-0.761 0.8198,-1.0146c0.6175,-0.3658 1.5067,-0.5624 2.1337,-0.9149c0.6593,-0.3695 1.0488,-0.8255 1.7186,-1.1799c0.5329,-0.284 1.121,-0.4161 1.026,-1.1172c-0.0314,-0.2318 -0.039,-0.588 0.0275,-0.7315c0.0646,-0.1463 0.5064,-0.5586 0.6403,-0.6251c0.1463,-0.0722 0.3658,0.0133 0.5254,0c0.4379,-0.0313 0.3391,0.9405 0.3363,1.3006c-0.0057,0.455 -0.1378,0.9595 -0.3211,1.3689c-0.1264,0.2822 -0.3097,0.2898 -0.5624,0.438c-0.3411,0.208 -0.8037,0.4636 -1.1543,0.6441c-0.5662,0.2859 -0.9281,0.5747 -1.4734,0.8996c-0.4123,0.2451 -0.9405,0.2043 -1.0631,0.6736c-0.0532,0.1985 -0.0703,0.9908 0.1473,1.1001c0.1491,0.076 0.6479,-0.0589 0.8445,-0.0589c0.6536,0 1.1077,-0.2432 1.6796,-0.5178c0.7363,-0.3562 1.6568,-0.6564 2.2895,-1.1723c0.5045,-0.4104 1.0203,-1.1096 1.6777,-1.2825c0.0409,0.2432 -0.0893,0.5159 -0.152,0.7458c-0.0703,0.2612 -0.0836,0.4807 -0.0836,0.7514c0,0.5748 -0.3344,0.9443 -0.74,1.3604c-0.7258,0.7325 -1.8145,0.9757 -2.8054,1.1429c-1.0127,0.1691 -2.0282,0.5291 -3.0115,0.8721c-0.6488,0.2261 -1.0497,0.189 -1.6549,0.512c-0.6441,0.3392 -1.33,0.8018 -1.8981,1.217c-0.2821,0.2099 -0.6327,0.4436 -0.8958,0.6735c-0.2081,0.1834 -0.6365,0.5007 -0.8959,0.6109c-0.3391,0.1387 -0.3733,0.113 -0.7125,0.2204c-0.247,0.0798 -0.8037,0.2185 -1.0497,0.2574c-0.6641,0.1055 -1.2949,-0.0779 -1.9542,-0.0988c-0.9538,-0.0313 -1.3822,-0.3021 -2.2752,-0.6403c-0.8512,-0.323 -1.7737,-0.4693 -2.5831,-0.8977c-0.3695,-0.1986 -0.9329,-0.4437 -1.2616,-0.703c-0.3325,-0.2632 -1.0687,-0.6679 -1.4421,-0.8645c-1.406,-0.7439 -2.5887,-2.0929 -2.1935,-3.7744c0.1406,-0.5918 0.6289,-1.0412 1.2065,-1.234c0.551,-0.1834 1.5475,-0.3078 2.1356,-0.2803" fill="#a2c6dd"></path><g fill="#010101"><g><path d="M226.18797,259.4765c-0.1387,-0.2261 0.3306,-0.4209 0.4512,-0.2204c1.4564,2.3949 1.3101,7.4499 -2.0149,8.1899c-3.7449,0.8351 -6.3251,2.7835 -9.6387,4.4137c-1.4507,0.7125 -3.2728,0.475 -4.77,0.0646c-2.3208,-0.6327 -10.4595,-3.2195 -8.7466,-7.03c0.5158,-1.1504 1.7404,-1.5029 2.8832,-1.596c3.3364,-0.2669 5.0787,-2.8243 7.8765,-4.0859c0.2574,-0.115 0.531,0.1691 0.2223,0.3078c-1.9817,0.8911 -3.6271,3.533 -5.7998,3.8779c-0.7714,0.1501 -1.5513,0.2451 -2.3379,0.2783c-1.8478,2.3845 -1.8905,4.0936 -0.1302,5.1262c1.5476,1.0042 3.173,1.919 4.9676,2.4083c5.6126,1.5304 7.4518,-1.787 11.9443,-3.2044c2.1907,-0.6935 5.321,-0.6954 5.6696,-3.9387c0.171,-1.5855 0.2964,-3.1502 -0.5766,-4.5913z"></path><path d="M220.61997,266.7402c-0.3344,-0.0057 -0.2508,-0.3838 0.0409,-0.3762c2.4149,0.0389 4.597,-1.4488 6.1835,-3.1322c0.1577,-0.1691 0.6327,-0.0684 0.4161,0.1577c-1.7043,1.8069 -4.0508,3.3934 -6.6405,3.3507z"></path><path d="M204.92787,263.2964c0.3078,-0.0741 0.4047,0.2822 0.0969,0.3563c-1.0431,0.2546 0.0893,1.919 0.4104,2.2952c0.9035,1.0611 2.3418,1.6682 3.6499,2.0596c3.1227,0.9367 7.7425,1.6102 8.5016,-2.622c0.0427,-0.2318 0.5491,-0.2917 0.5025,-0.0333c-0.3372,1.8782 -0.7296,2.8443 -2.6666,3.4438c-2.1841,0.6754 -4.4926,0.2954 -6.6225,-0.4437c-1.7575,-0.6127 -3.7943,-1.4421 -4.5049,-3.3364c-0.3306,-0.8825 -0.3325,-1.4858 0.6327,-1.7195z"></path><path d="M223.46337,262.0833c0.2565,-0.1264 0.5272,0.1577 0.2242,0.3116c-0.9633,0.4845 -1.8962,1.0222 -2.8291,1.5637c-0.8873,0.512 -1.9542,0.9329 -2.7427,1.5865c-0.1985,0.1653 -0.5918,-0.0238 -0.3325,-0.2394c0.7239,-0.5995 1.6682,-0.9738 2.4805,-1.444c1.0583,-0.6099 2.109,-1.2255 3.1996,-1.7784z"></path><path d="M224.55487,262.9753c0.2527,-0.1406 0.5178,0.1425 0.2242,0.3078c-1.4098,0.779 -2.774,1.6312 -4.1372,2.4919c-0.2109,0.1339 -0.6147,-0.0608 -0.3325,-0.2394c1.3974,-0.8826 2.7977,-1.7585 4.2455,-2.5603z"></path><path d="M224.93487,263.2185c-0.1035,0.2043 -0.607,0.1891 -0.475,-0.0665c0.4028,-0.7828 0.7125,-2.1394 0.1558,-2.9146c-0.1558,-0.2156 0.3135,-0.4123 0.4513,-0.2204c0.6213,0.8655 0.323,2.3199 -0.1321,3.2015z"></path><path d="M223.80347,262.2799c-0.0741,0.2185 -0.5681,0.2119 -0.475,-0.0627c0.1387,-0.4189 0.0931,-0.8179 -0.058,-1.2264c-0.0874,-0.2299 0.4066,-0.3677 0.494,-0.134c0.1777,0.4788 0.1986,0.9367 0.039,1.4231z"></path><path d="M220.70737,266.5673c-0.0057,0.2318 -0.5101,0.3021 -0.5025,0.0332c0.0076,-0.2802 0.0408,-0.5662 -0.019,-0.8426c-0.0561,-0.2432 0.4398,-0.3734 0.494,-0.134c0.0674,0.3107 0.0351,0.628 0.0275,0.9434z"></path></g></g><g fill="#010101"><g><path d="M211.33657,252.436c0.0988,-0.0627 0.5976,-0.1073 0.3838,0.0295c-0.1634,0.1054 -0.7163,0.5956 -1.0944,0.6156c-3.0371,0.1596 -5.6259,0.5453 -8.5367,1.5884c-3.1302,1.1191 -7.2884,0.9519 -10.526,0.4598c-3.5938,-0.5453 -4.3662,-3.9891 -2.7797,-6.7593c0.0523,-0.0893 0.191,-0.1244 0.2879,-0.1425c3.7515,-0.6422 7.2732,-1.7556 10.5877,-3.648c0.1264,-0.0722 0.5767,-0.0779 0.2898,0.0855c-2.5869,1.4811 -5.2621,2.4662 -8.1396,3.2215c-1.7423,0.4579 -4.067,0.9367 -3.4637,3.4903c0.5491,2.3142 2.1204,3.5739 4.6911,3.7126c4.692,0.2451 8.8787,-0.475 13.2515,-2.2762c1.6454,-0.6774 3.4153,0.6906 5.0483,-0.3772z"></path><path d="M190.17817,248.1705c0.0133,-0.1596 0.5007,-0.2204 0.494,-0.1282c-0.1463,1.6492 -0.1206,3.496 1.8145,4.1173c1.6312,0.5234 3.2671,0.1387 4.9315,0.0627c0.3306,-0.0171 -0.0665,0.2118 -0.21,0.2185c-1.8648,0.0855 -3.7183,0.5529 -5.4919,-0.2451c-1.7053,-0.7648 -1.6787,-2.4501 -1.5381,-4.0252z"></path><path d="M198.58187,250.3042c0.0779,-0.0988 0.5605,-0.1653 0.4513,-0.0256c-0.5178,0.6536 -1.0612,1.2863 -1.4735,2.013c-0.0741,0.1321 -0.5377,0.1653 -0.4902,0.0817c0.4228,-0.7476 0.9795,-1.3993 1.5124,-2.0691z"></path><path d="M206.84407,248.5847c0.3467,-0.0408 0.1244,0.1815 -0.0874,0.2062c-2.6885,0.3268 -5.4473,0.8683 -8.0361,1.6587c-0.2878,0.0893 -0.3325,-0.0893 -0.0465,-0.1767c2.6353,-0.8056 5.433,-1.3566 8.17,-1.6882z"></path><path d="M208.95207,249.416c0.2527,0.0038 -0.2004,0.2223 -0.3154,0.2204c-1.1856,-0.02 -2.5602,0.4493 -3.6717,0.7571c-1.4231,0.3933 -2.8405,0.7999 -4.275,1.1543c-0.2898,0.0703 -0.3411,-0.1074 -0.0466,-0.1786c2.622,-0.6489 5.568,-2.0036 8.3087,-1.9532z"></path><path d="M199.85297,252.7353c-0.2574,-0.0219 0.1986,-0.2318 0.3154,-0.2157c1.9741,0.1615 3.8722,-0.7904 5.7589,-1.1656c1.1353,-0.2242 4.1971,0.1966 4.5885,-1.1657c0.039,-0.1377 0.5273,-0.2042 0.4921,-0.0817c-0.3619,1.2597 -2.2714,1.2768 -3.3231,1.2987c-2.6666,0.0513 -5.1623,1.5466 -7.8318,1.33z"></path><path d="M200.27577,251.4993c0.0836,-0.1282 0.5377,-0.1558 0.4902,-0.0817c-0.247,0.3838 -0.4104,0.8018 -0.6194,1.2046c-0.0684,0.134 -0.5358,0.1729 -0.4902,0.0817c0.208,-0.4028 0.3724,-0.8255 0.6194,-1.2046z"></path></g></g></g><g data-paper-data="{&quot;index&quot;:null}"><path d="M205.71637,105.0929c-0.7258,-0.9357 -2.2116,-1.5836 -3.4105,-1.5247c-0.5253,0.0256 -1.1637,0.2878 -1.3898,0.8588c-0.2318,0.5814 0.1387,1.0858 0.5567,1.4164c0.6564,0.5206 1.7698,0.6232 2.5811,0.5567c0.3781,-0.0304 2.167,-0.6146 1.6682,-1.2093M211.06587,103.8541c0.171,-0.5358 1.7166,-0.7419 2.2154,-0.798c0.798,-0.0902 1.6587,-0.1719 2.1802,0.5197c0.6365,0.8426 -0.1795,1.4981 -0.9034,1.9361c-0.7961,0.4788 -1.8478,0.7391 -2.718,0.4664c-0.3819,-0.1197 -1.1637,-0.4569 -1.4031,-0.759c-0.3021,-0.3829 0.2489,-1.6663 0.8464,-1.2322" fill="#f5f6f6"></path><path d="M210.80077,103.7886c0.3971,-0.3857 1.9817,-1.0336 2.4805,-0.7325c0.0427,0.6755 0.2517,1.8079 -0.5292,2.091c-1.7632,0.6412 -1.8259,-0.6774 -1.9133,-1.3177" fill="#33512e"></path><path d="M201.78057,103.5454c0.2242,-0.02 1.3214,-0.0086 1.5475,0.0513c0.438,0.1121 0.191,0.4189 0.3876,0.854c0.2746,0.609 -0.1035,0.8959 -0.4398,1.0336c-0.4513,0.1843 -0.7087,0.1957 -1.2616,-0.1149c-0.3449,-0.1938 -0.5843,-1.8506 -0.2337,-1.824" fill="#33512e"></path><g fill="#010101"><g><path d="M210.19847,104.8792c-0.0275,0.1111 -0.399,0.1672 -0.3714,0.0532c0.4883,-1.8174 6.0933,-3.3269 6.1104,-0.7524c0.0057,1.1229 -1.7015,1.6644 -2.5603,1.8002c-1.2074,0.191 -2.8519,0.1691 -3.5473,-1.0241c-0.0465,-0.0798 0.3059,-0.2109 0.3715,-0.0997c0.5842,1.0003 1.9779,1.1466 3.021,0.9823c0.7752,-0.1235 2.5127,-0.5824 2.3455,-1.7081c-0.3258,-2.1784 -4.9381,-0.856 -5.3694,0.7486z"></path><path d="M205.75347,105.5698c0.0237,0.1188 -0.3506,0.2071 -0.3696,0.1007c-0.1672,-0.8645 -0.9015,-1.4696 -1.7033,-1.7556c-0.7866,-0.2812 -2.6923,-0.5301 -2.5698,0.8341c0.1463,1.6359 3.4162,1.9371 4.2883,0.875c0.0665,-0.0817 0.4342,-0.1207 0.3411,-0.0076c-0.6213,0.7552 -1.8411,0.8635 -2.7446,0.7457c-0.8094,-0.1064 -2.4415,-0.5329 -2.2505,-1.6701c0.4085,-2.4139 4.6578,-0.9443 5.0084,0.8778z"></path></g></g><g fill="#010101"><g><path d="M213.04847,103.0618c-0.0408,-0.0712 0.3116,-0.2052 0.3715,-0.1007c1.3803,2.4054 -2.889,3.5236 -2.9317,1.1951c-0.0019,-0.1197 0.3695,-0.1824 0.3714,-0.0997c0.0152,0.8626 0.7534,1.5057 1.6198,1.1599c0.9462,-0.3781 1.0298,-1.3528 0.569,-2.1546z"></path><path d="M201.40627,103.9282c0.0057,-0.1235 0.3752,-0.1776 0.3733,-0.1007c-0.0237,0.5586 0.1539,1.4108 0.7648,1.6198c1.215,0.4142 0.9386,-0.9719 0.8141,-1.596c-0.0199,-0.1074 0.3506,-0.1976 0.3715,-0.0998c0.0798,0.4028 0.2783,0.9918 0.0608,1.3851c-0.1872,0.3411 -0.5254,0.4598 -0.8892,0.5273c-1.0279,0.1928 -1.5324,-0.8693 -1.4953,-1.7357z"></path></g></g></g><g data-paper-data="{&quot;index&quot;:null}"><path d="M218.22317,117.0477c2.3028,0.6356 4.5144,1.0726 6.7165,2.242c1.2008,0.6384 3.077,1.6958 3.9282,3.0334c0.742,1.1628 1.7034,1.7166 1.9798,3.0248c0.5586,2.6438 0.6242,4.3377 0.8465,6.9074c0.113,1.2987 0.5728,1.5305 0.9699,2.7113c0.2014,0.5985 0.5672,1.1923 0.7714,1.7775c0.2195,0.6365 -0.6175,1.9513 -0.9832,2.4244c-0.7961,1.0317 -1.3785,2.2249 -2.0482,2.6913c-1.0241,0.7106 -1.768,3.4286 -3.0761,3.7962c-1.0726,0.304 -1.3994,0.0836 -2.5071,0.2185c-1.2929,0.1549 -2.2078,-0.4208 -3.0932,-0.8626c1.0298,0.5159 0.0751,5.6753 0.1767,7.6095c0.0684,1.2968 1.7604,4.978 2.1185,5.5737c0,0 2.6002,-0.2081 1.9561,2.8519c-0.5444,2.5859 -0.0798,1.2492 -0.2081,3.6442c-0.1719,3.2433 -1.0298,6.307 -1.7309,9.1789c-0.3154,1.3015 -1.1191,5.0084 -0.0019,5.7798c0.5729,0.3952 -3.2499,2.223 -4.5552,2.8519c-2.2819,1.0991 -4.0746,0.8597 -6.7165,0.5253c-1.1001,-0.1387 -3.0875,-0.9072 -4.0879,-1.4449c-1.2426,-0.6698 -2.2467,-1.6739 -3.4637,-2.3807c-1.2986,-0.7553 -2.469,-1.3585 -3.705,-2.2297c-1.1428,-0.8075 -2.6362,-1.367 -3.8237,-2.1175c-0.8294,-0.5263 -0.9272,-0.5529 -1.0982,-1.4374c-0.1207,-0.6327 0.018,-1.2426 0.2318,-1.9465c0.3192,-1.0526 1.1172,-2.0986 1.0241,-3.401c-0.0428,-0.5938 -0.4731,-1.1505 -0.5548,-1.7385c-0.0998,-0.7097 0.2137,-1.2721 0.3971,-1.901c0.3762,-1.2844 1.1428,-2.1707 1.69,-3.3677c0.2708,-0.5947 0.6346,-1.1524 0.8588,-1.7556c0.2138,-0.5786 0.1425,-1.1467 0.3154,-1.7594c0.191,-0.6897 0.5738,-1.2968 0.7923,-2.0539c0.1834,-0.6413 0.4104,-1.2483 0.5159,-1.9c0.2175,-1.3414 -0.0076,-2.5327 0.5139,-3.7981c0.4342,-1.0517 0.0238,-2.1185 0.1929,-3.5644c0.1738,-1.4782 -0.2679,-0.9738 -1.0821,-1.1039c-0.5947,-0.0969 -1.1495,-0.3031 -1.6824,-0.609c-0.9187,-0.5225 -1.8193,-1.5361 -2.394,-2.4662c-0.7971,-1.292 0.4332,-1.9285 1.0079,-2.8538c0.6384,-1.0336 1.064,-2.1878 1.4051,-3.3972c0.3382,-1.196 0.6327,-2.4263 0.8037,-3.6641c0.1776,-1.2768 0.2375,-3.2965 0.3781,-4.5619c0.2869,-2.566 2.2581,-3.5549 4.1391,-5.0464c0.9111,-0.723 2.0967,-1.3728 2.9878,-2.0739c-0.4598,0.913 -0.7049,1.6502 -1.0887,2.2145c-0.3363,0.493 -0.5102,1.063 -0.7277,1.5789c-0.5026,1.1922 -1.0317,2.4519 -0.2651,3.6603c0.7733,1.2189 1.6606,2.186 3.1873,2.0359c1.6216,-0.1615 2.5213,-0.3639 3.3212,-1.692c0.6004,-0.9975 1.0668,-1.5627 1.4877,-2.6296c0.4493,-1.1267 1.2929,-2.7084 1.7774,-3.8218c0.438,-1.0061 0.6612,-1.9912 1.3566,-2.8206c0.5339,-0.6384 1.1486,-2.1023 0.5007,-2.602" fill="#555d7b"></path><g fill="#010101"><g><path d="M197.21297,141.4371c-0.0988,0.1548 -0.6014,0.1833 -0.4655,-0.0276c1.2093,-1.9237 2.906,-3.9729 3.3212,-6.2605c0.36,-1.9826 0.2204,-4.008 0.4579,-6.0021c0.5234,-4.3842 3.9653,-6.5626 7.5145,-8.7504c0.1786,-0.1102 0.6032,0.0028 0.3173,0.1795c-2.7275,1.6796 -6.7821,3.8912 -7.1953,7.3578c-0.2223,1.8629 -0.2337,3.7354 -0.3914,5.6031c-0.2565,3.0324 -1.9836,5.3979 -3.5587,7.9002z"></path><path d="M196.73227,141.4884c-0.0836,-0.1691 0.4009,-0.323 0.4949,-0.1321c0.8056,1.6226 3.2747,3.9691 5.2269,3.6661c0.3392,-0.0523 0.1929,0.2726 -0.0579,0.3097c-2.1755,0.3391 -4.7738,-2.0473 -5.6639,-3.8437z"></path><path d="M202.67547,149.6365c-0.02,0.1891 -0.5235,0.2746 -0.4969,0.0523c0.627,-5.8454 -1.0611,-11.7411 -0.6602,-17.6197c0.0114,-0.1909 0.512,-0.2802 0.4968,-0.0532c-0.4037,5.8805 1.2873,11.7696 0.6603,17.6206z"></path><path d="M202.32207,140.2249c-0.0038,-0.1843 0.494,-0.2822 0.4968,-0.0504c0.0988,4.9543 0.0608,9.8791 -1.1409,14.7269c-0.5396,2.1765 -1.1001,4.4631 -2.1936,6.4477c-1.5627,2.8357 -2.7293,4.5894 -0.646,7.8745c0.5064,0.7714 0.989,1.559 1.4488,2.3598c0.1168,0.1986 -0.362,0.3658 -0.4579,0.2043c-0.818,-1.3842 -2.566,-3.3079 -2.6201,-5.036c-0.0998,-3.2319 2.1593,-5.4891 3.0723,-8.5224c1.7945,-5.9575 2.1612,-11.8218 2.0406,-18.0044z"></path><path d="M208.05057,120.6036c0.1092,-0.1425 0.6137,-0.1606 0.4655,0.0304c-1.1286,1.4383 -1.919,2.9839 -2.3209,4.7851c-0.8274,3.6927 3.1075,6.1418 5.8482,2.8481c2.6923,-3.2319 4.0746,-7.6703 5.9632,-11.4c0.0817,-0.1653 0.5804,-0.2004 0.4636,0.0295c-1.6606,3.2841 -2.8833,7.2456 -5.0464,10.2258c-0.9928,1.3661 -2.2154,2.9915 -4.067,3.0742c-5.8615,0.2574 -3.4979,-6.8011 -1.3062,-9.5931z"></path><path d="M197.72307,168.1834c0,-0.1881 0.4988,-0.2841 0.4988,-0.0542c-0.0038,2.0986 -2.603,4.7671 -0.6698,6.5294c0.1539,0.1406 -0.3135,0.3363 -0.4579,0.2042c-2.0206,-1.842 0.6251,-4.5457 0.6289,-6.6794z"></path><path d="M213.00097,180.7224c-0.3363,-0.0057 -0.0237,-0.3173 0.1853,-0.3097c5.0673,0.0998 8.7428,-4.7443 11.2071,-8.6041c0.0988,-0.1539 0.6014,-0.1834 0.4655,0.0275c-2.6305,4.1221 -6.479,8.9937 -11.8579,8.8863z"></path><path d="M197.01247,174.631c-0.2175,-0.1396 0.2337,-0.3581 0.3857,-0.2584c7.3844,4.7291 18.2172,13.5128 26.3625,5.2839c0.134,-0.132 0.6175,-0.1073 0.4066,0.1074c-8.4949,8.5832 -19.494,-0.2271 -27.1548,-5.1329z"></path><path d="M225.64357,158.6492c-0.0019,-0.1862 0.495,-0.2831 0.494,-0.0532c0.039,3.5378 -0.284,6.7089 -0.7714,10.2258c-0.3619,2.5906 -3.1578,8.4151 -1.1761,10.7967c0.1425,0.171 -0.3325,0.3525 -0.456,0.2043c-1.8496,-2.2259 0.2337,-5.72 0.685,-8.1254c0.817,-4.3757 1.273,-8.6051 1.2245,-13.0482z"></path><path d="M233.82687,137.0243c0.076,0.1777 -0.4123,0.3268 -0.4921,0.134c-0.8141,-1.9038 -1.6473,-3.7497 -2.1261,-5.7741c-0.3933,-1.6635 0.0646,-4.3824 -0.5662,-5.852c-2.1223,-4.9524 -7.7149,-7.0975 -12.5485,-8.5025c-0.2898,-0.0836 0.1168,-0.3487 0.2964,-0.2955c4.4602,1.2968 9.7042,3.2376 12.2179,7.4442c1.2635,2.1176 0.495,4.77 1.0925,7.0737c0.5225,2.0188 1.3091,3.8589 2.1261,5.7722z"></path><path d="M220.96767,144.7003c-0.1558,-0.1349 0.3126,-0.3315 0.4551,-0.2042c1.5608,1.3566 4.4422,1.6064 6.3498,0.9794c0.2964,-0.0969 0.3695,0.1891 0.076,0.286c-2.09,0.6868 -5.1775,0.4208 -6.8809,-1.0612z"></path><path d="M221.44457,144.5721c-0.0313,0.19 -0.5339,0.2698 -0.4968,0.0522c0.4265,-2.5203 0.627,-7.409 -2.1698,-8.6915c-0.2242,-0.1007 0.2223,-0.3335 0.3876,-0.2575c2.9013,1.3291 2.7227,6.2748 2.279,8.8968z"></path></g></g></g><g data-paper-data="{&quot;index&quot;:null}"><path d="M222.01267,146.1329c0.1786,0.2765 -0.8702,-1.3233 0.8389,-0.5092c0.3097,0.1473 0.8854,0.2166 1.2226,0.2793c0.5748,0.1093 1.3433,0.1549 1.919,0.1207c0.3506,-0.02 0.6736,-0.0523 1.026,-0.0646c0.152,-0.0038 0.4655,-0.1093 0.5919,-0.1425c0.2631,-0.0722 0.4579,-0.5273 0.5937,-0.7686c0.6071,-1.0963 1.3528,-2.0928 2.1489,-3.0286c0.4883,-0.569 0.9671,-1.0032 1.3234,-1.6862c0.1653,-0.3211 0.2612,-0.665 0.4227,-0.9861c0.1786,-0.361 0.494,-0.6308 0.6926,-0.9871c0.1729,-0.3116 0.3467,-0.646 0.5548,-0.9386c0.1615,-0.2299 0.4227,-0.399 0.5491,-0.6526c0.1406,-0.2869 0.1672,-0.5216 0.3971,-0.7904c0.2118,-0.248 0.4417,-0.4931 0.7182,-0.6688c0.5899,-0.3762 1.3955,-0.6194 2.0871,-0.6546c2.1651,-0.1054 3.5958,1.3842 5.5167,1.2987c1.2559,-0.057 2.5108,-0.21 3.7848,-0.1634c0.2612,0.0076 0.6583,0.1149 0.8464,0.3429c0.2157,0.2594 0.1378,0.4266 -0.0038,0.6346c-0.2099,0.3088 -0.3268,0.4722 -0.6773,0.646c-0.4323,0.2147 -0.8664,0.3838 -1.3395,0.4902c-0.3287,0.0741 -0.855,0.1349 -1.141,0.3021c-0.2897,0.171 -0.247,0.4399 -0.1966,0.7809c0.0798,0.5444 0.4322,1.2692 0.911,1.5675c0.7705,0.4826 1.7148,0.6213 2.5232,1.0365c0.9035,0.4645 1.8088,0.8578 2.7351,1.2815c0.8702,0.399 1.5551,0.7724 2.2838,1.3709c0.3895,0.3182 1.1685,0.7134 1.1428,1.272c-0.0313,0.684 -0.7771,0.8845 -1.3338,0.9196c0.0114,0.0485 0.0542,0.0998 0.0684,0.1473c0.0817,0.2831 0.2964,0.2945 0.3192,0.6298c0.0152,0.2632 -0.0038,0.5501 -0.0332,0.8161c-0.0608,0.5785 -0.9348,1.0051 -1.5029,0.9129c-0.3325,-0.0522 -0.7049,-0.3154 -1.045,-0.4237c-0.2936,-0.094 -0.6109,-0.2042 -0.9149,-0.3182c-0.6564,-0.2508 -1.3566,-0.4275 -1.9836,-0.6565c0.0874,0.5586 -0.7961,0.7315 -1.1561,0.7705c-0.9833,0.1054 -1.9988,-0.2375 -2.9878,-0.3886c-0.475,-0.0703 -1.1504,-0.151 -1.5513,-0.3762c-0.267,-0.1482 -0.4693,-0.4322 -0.6536,-0.6602c-0.5083,-0.6365 -1.0859,-1.1581 -1.7309,-1.6578c-0.6403,-0.4978 -1.217,-1.0222 -1.8829,-1.5c-0.4304,-0.3078 -1.0336,-1.1353 -1.445,-0.4731c-0.4826,0.779 -0.6735,1.7822 -0.874,2.6828c-0.2527,1.1466 -0.5415,1.5903 -0.892,2.6866c-0.3325,1.026 -0.5586,1.9608 -0.97,2.9649c-0.2118,0.514 -1.0982,1.6255 -1.4012,2.0691c-0.3192,0.4636 -0.3601,0.8417 -0.7828,1.2246c-0.9301,0.8398 -1.6103,1.9047 -2.7759,2.4823c-0.4399,0.2166 -0.8408,0.4304 -1.2464,0.7049c-0.3002,0.2024 -0.6755,0.4494 -1.0374,0.4978c-1.6825,0.2318 -2.1613,-1.2511 -2.7408,-2.5137c-0.8854,-1.937 -1.1314,-4.0375 -1.0127,-6.1123c0.0912,-1.6207 -0.018,-1.8895 0.095,-3.8114" fill="#d8ad8c"></path><g fill="#010101"><g><path d="M223.80917,157.2574c0.1054,0.153 -0.3734,0.3145 -0.4598,0.1881c-2.5907,-3.7335 -1.2616,-7.9581 -1.6701,-12.1942c-0.0171,-0.1767 0.4807,-0.2802 0.4949,-0.132c0.4009,4.1714 -0.9177,8.454 1.635,12.1381z"></path><path d="M232.69257,138.3249c0.0836,-0.1245 0.5786,-0.1796 0.456,0c-1.6435,2.469 -3.3972,4.8706 -5.11,7.2941c-1.7889,2.5308 -3.4552,4.6977 -2.6961,7.9724c0.0389,0.1643 -0.4579,0.2907 -0.495,0.133c-0.7011,-3.0277 0.6156,-5.1082 2.3104,-7.5041c1.8535,-2.6239 3.7535,-5.2231 5.5347,-7.8954z"></path><path d="M226.11667,158.6872c-0.1482,0.0931 -0.5842,0.0484 -0.304,-0.1283c3.3013,-2.0748 5.8634,-4.6075 7.144,-8.3486c0.855,-2.5099 1.5267,-5.0407 2.7142,-7.4261c0.076,-0.1482 0.5586,-0.1986 0.4949,-0.0665c-1.4839,2.9782 -1.9703,6.3422 -3.4827,9.2872c-1.5114,2.9412 -3.7924,4.9381 -6.5664,6.6823z"></path><path d="M223.33797,157.4085c-0.058,-0.1425 0.4303,-0.2964 0.4949,-0.134c0.38,0.931 1.1951,1.2607 2.1575,1.216c0.3344,-0.0161 -0.0257,0.2556 -0.1967,0.2622c-1.0706,0.0513 -2.0273,-0.2992 -2.4557,-1.3442z"></path><path d="M243.94247,138.0817c0.1501,-0.0931 0.5881,-0.0485 0.3021,0.1282c-1.2226,0.761 0.8094,2.2582 1.501,2.5536c0.1948,0.0827 -0.2574,0.2869 -0.3971,0.228c-0.9699,-0.4123 -2.8889,-1.9893 -1.406,-2.9098z"></path><path d="M253.46437,145.9192c-0.0722,0.1301 -0.5662,0.1947 -0.4579,0c0.8331,-1.5115 -6.4999,-4.5239 -7.658,-4.9277c-0.1947,-0.0665 0.2565,-0.2774 0.3971,-0.228c1.1951,0.4171 8.6896,3.3934 7.7188,5.1557z"></path><path d="M233.91337,136.6814c0.1482,-0.0969 0.5823,-0.0561 0.3021,0.1273c-4.3415,2.8338 6.2358,8.4692 7.3919,10.6675c0.0665,0.1264 -0.4123,0.2917 -0.4949,0.1321c-1.2407,-2.3646 -12.0394,-7.7672 -7.1991,-10.9269z"></path><path d="M241.16277,147.6558c-0.1909,-0.0589 0.2565,-0.2717 0.399,-0.229c0.7942,0.2451 5.2716,1.3433 5.3286,0.1283c0.0627,-1.3101 -3.0657,-1.8145 -4.0043,-1.7613c-0.3325,0.019 0.0276,-0.2527 0.1967,-0.2632c0.8312,-0.0465 5.4625,0.8579 4.0983,2.3864c-0.551,0.6175 -1.5865,0.4636 -2.3266,0.3933c-1.2293,-0.1197 -2.5061,-0.2869 -3.6917,-0.6545z"></path><path d="M251.37717,149.0694c-0.2175,0.0779 -0.5177,-0.0656 -0.1909,-0.1843c2.4158,-0.8778 -0.837,-2.2781 -1.7366,-2.6828c-2.0767,-0.9282 -4.3491,-1.312 -6.3213,-2.4757c-0.1929,-0.1131 0.2669,-0.3031 0.3971,-0.228c2.4624,1.4525 5.4121,1.7613 7.8631,3.2613c1.3861,0.8455 1.6435,1.7072 -0.0114,2.3095z"></path><path d="M247.14307,147.7413c-0.1948,-0.0941 0.2593,-0.2936 0.3971,-0.228c1.2074,0.5757 2.5213,0.8569 3.7591,1.3661c0.1948,0.0798 -0.2593,0.2859 -0.3971,0.228c-1.2378,-0.5083 -2.5507,-0.7885 -3.7591,-1.3661z"></path><path d="M252.62837,148.0215c-0.0314,0.1558 -0.5292,0.2413 -0.4921,0.0656c0.6251,-3.1103 -6.0933,-4.2009 -7.9306,-5.5765c-0.1226,-0.0922 0.3287,-0.2879 0.4617,-0.1872c1.8544,1.3918 8.6174,2.4235 7.961,5.6981z"></path><path d="M252.28067,146.5633c-0.3325,0.0114 0.0275,-0.2575 0.1985,-0.2632c0.3154,-0.0095 0.5121,-0.1301 0.5938,-0.4341c0.0427,-0.1577 0.5376,-0.2328 0.494,-0.0665c-0.1577,0.5918 -0.7334,0.7467 -1.2863,0.7638z"></path><path d="M243.21477,145.5686c0.1036,0.1577 -0.3762,0.3154 -0.4598,0.1872c-0.7552,-1.1391 -1.6881,-2.1508 -2.5032,-3.2452c-0.1131,-0.1482 0.3657,-0.3135 0.4598,-0.1872c0.817,1.0954 1.748,2.1043 2.5032,3.2452z"></path><path d="M244.01087,138.1795c-0.3344,0.0124 0.0257,-0.2574 0.2005,-0.2631c0.5624,-0.0209 3.3896,-0.3107 2.8405,-1.502c-0.3933,-0.8569 -1.8886,-0.4598 -2.5517,-0.4009c-0.7277,0.0665 -1.5219,0.1976 -2.2525,0.1387c-2.7939,-0.2213 -5.8054,-3.6052 -7.9344,0.5605c-0.0779,0.1482 -0.5624,0.1948 -0.4949,0.0665c0.8445,-1.6511 2.0054,-2.4415 3.8779,-2.3322c1.0573,0.0617 2.108,0.5415 3.0742,0.93c1.5067,0.608 2.7958,0.4465 4.3937,0.3297c0.5976,-0.0428 3.4419,-0.2689 2.2363,1.3338c-0.7115,0.9462 -2.3113,1.0953 -3.3896,1.139z"></path></g></g></g><g data-paper-data="{&quot;index&quot;:null}"><path d="M212.00637,250.1655c-2.566,-0.0209 -4.0546,-1.0098 -6.2643,-2.1137c-1.1733,-0.5843 -2.9802,-1.5143 -4.0565,-2.2952c-0.7591,-0.551 -1.9589,-1.1989 -2.1727,-2.1337c-0.2631,-1.1533 0.6897,-2.1185 1.065,-3.1075c0.436,-1.1523 1.0554,-2.0976 0.1928,-3.5815c-0.6346,-1.0906 -1.0573,-2.3028 -1.1799,-3.5511c-0.1187,-1.1951 0.1729,-2.5146 0.2318,-3.7411c0.2546,-5.0853 -0.4769,-9.8781 -0.4636,-15.0347c0.0029,-1.31 -0.1786,-2.8709 -0.1786,-4.1638c0.0019,-1.3272 -0.5681,-2.6828 -0.4303,-4.0062c0.1596,-1.5247 -0.0238,-3.3345 -0.191,-4.9001c-0.152,-1.4288 -0.2954,-2.5289 -0.3657,-3.9928c-0.039,-0.8161 -0.1482,-1.7442 -0.3078,-2.5584c-0.1188,-0.6137 -0.0855,-1.8069 -0.3753,-2.4785c-1.7613,-4.1135 -0.9367,-18.2153 -0.2394,-17.8182c2.4244,1.3813 11.6223,7.5411 13.6373,8.0085c1.6254,0.3762 1.785,0.4541 3.3231,0.6137c1.025,0.1045 3.9396,-0.0371 5.6002,-0.7752c0,0 2.8586,-1.4602 2.9089,-1.5181c0.3097,-0.1672 0.9016,2.8699 0.742,4.6645c-0.0285,0.3325 -0.0599,2.83 -0.1672,2.5089c0.5196,-0.0275 -0.1501,1.654 -0.0589,2.11c0.3857,1.919 -0.7714,1.9703 -0.191,1.748c0.457,-0.1739 -0.4132,1.5437 0.0485,1.3917c0.5196,-0.1729 -0.7695,1.1818 -0.1036,1.3281c0.2147,2.566 -0.2261,5.3419 -0.6013,7.8451c-0.2651,1.7832 -0.4095,3.44 -0.5472,5.0968c-0.1226,1.4829 -0.1577,2.8595 -0.1577,4.3272c0,1.3262 -0.1967,2.603 0.6811,3.6661c0.4019,0.4921 0.8351,0.9889 0.9757,1.6644c0.1292,0.6194 -0.0656,1.1875 -0.0114,1.7641c0.1349,1.4621 0.569,2.5612 0.7381,3.8542c0.172,1.2986 0.2765,2.4567 0.4655,3.7297c0.3772,2.5108 0.7334,4.9542 0.8892,7.5259c0.1463,2.393 0.4009,5.0008 0.304,7.4755c-0.0522,1.2787 -0.3657,2.318 -0.4807,3.5407c-0.1216,1.292 0.058,2.3769 0.4532,3.4884c0.4009,1.1257 1.0165,2.2154 1.254,3.3449c0.2593,1.2284 0.4693,2.0834 0.5842,3.364c0.0798,0.9006 -0.0465,1.7708 -0.5196,2.5887c-0.8769,1.5096 -1.35,1.3652 -3.1113,2.3171c-1.6416,1.1675 -1.482,1.0526 -3.0153,1.7964c-1.1704,0.5681 -2.2372,-0.2061 -3.4561,-0.7125c-1.4516,-0.6061 -2.9193,-1.4639 -4.3643,-2.1223c-0.9015,-0.4123 -3.2936,-0.4636 -2.9687,-1.5903c0.1748,-0.5985 0.6146,-1.0345 0.7201,-1.6843c0.113,-0.703 0.2897,-1.3918 0.3895,-2.0948c0.1073,-0.7581 0.0646,-1.31 0.3192,-2.0035c0.228,-0.6109 0.4446,-1.2284 0.4617,-1.9428c0.0779,-0.019 0.1482,0.0057 0.2223,-0.0114" fill="#244764"></path><g fill="#010101"><g><path d="M201.93067,186.9402c-0.2841,-0.0969 0.1244,-0.3487 0.2964,-0.2879c0.8388,0.286 1.8145,0.4921 2.4643,1.1429c1.0839,1.0858 1.5067,2.7645 1.9351,4.1838c0.0589,0.1909 -0.436,0.3249 -0.494,0.1339c-0.399,-1.3157 -0.7904,-3.0039 -1.7983,-4.0137c-0.6555,-0.6593 -1.5476,-0.8655 -2.4035,-1.159z"></path><path d="M204.29807,188.254c-0.0152,-0.2061 0.4807,-0.3154 0.4949,-0.132c0.38,5.0065 1.1115,10.4595 2.6591,15.2541c1.063,3.2918 3.2214,7.1231 3.2214,10.6315c0,0.1833 -0.4968,0.2802 -0.4968,0.056c0,-4.084 -2.7873,-8.0968 -3.629,-12.0384c-0.9728,-4.5438 -1.8943,-9.1323 -2.2496,-13.7712z"></path><path d="M222.59887,180.8174c-0.0409,-0.1985 0.456,-0.3211 0.4949,-0.1301c1.3139,6.3849 0.2261,13.5983 -0.3116,20.0203c-0.2954,3.5387 -0.7942,7.0974 -0.8388,10.6485c-0.0276,2.2838 0.0076,3.1398 1.2692,4.9619c0.1168,0.2156 0.2099,0.4379 0.2783,0.6735c0.1036,2.0463 0.6346,3.9653 0.7648,5.9983c0.0152,0.2062 -0.4826,0.3154 -0.494,0.134c-0.1425,-2.2306 -0.3344,-5.6335 -1.6046,-7.4661c-0.4987,-0.722 -0.7381,-1.8496 -0.7296,-2.7113c0.0428,-3.4437 0.3971,-6.839 0.6954,-10.2628c0.6061,-6.9854 1.9029,-14.934 0.476,-21.8662z"></path><path d="M208.96157,208.9944c0.0076,-0.1852 0.5064,-0.2764 0.4969,-0.0541c-0.1283,2.6324 -1.2578,5.2525 -0.8256,7.9097c0.3097,1.9 0.798,3.7411 0.8256,5.6724c0.0019,0.1815 -0.495,0.2803 -0.4969,0.0561c-0.037,-2.5052 -1.158,-4.9875 -0.9015,-7.4889c0.209,-2.0539 0.8008,-4.028 0.9015,-6.0952z"></path><path d="M196.95837,174.5284c0.019,-0.1843 0.5196,-0.2745 0.4949,-0.0532c-0.4265,4.1677 -1.1058,8.4465 -0.6517,12.6464c0.4171,3.8703 1.6644,7.5278 1.8373,11.439c0.0114,0.208 -0.4864,0.3116 -0.494,0.132c-0.1947,-4.4327 -1.8705,-8.5927 -1.9256,-13.033c-0.0437,-3.7516 0.3572,-7.4081 0.7391,-11.1312z"></path><path d="M199.12717,233.2821c-0.0779,-0.171 0.4085,-0.3211 0.494,-0.132c1.0374,2.2657 1.4402,5.1604 3.0875,7.0689c1.7423,2.0188 3.0875,2.8073 5.8786,2.9336c0.3363,0.0114 0.02,0.3135 -0.1852,0.304c-2.6714,-0.1187 -4.1762,-0.7495 -5.8967,-2.7464c-1.8135,-2.0948 -2.2372,-4.9324 -3.3782,-7.4281z"></path><path d="M199.62307,233.6669c-0.0427,0.1871 -0.5434,0.2612 -0.4968,0.056c1.52,-6.7241 0.2137,-15.066 -0.3392,-21.8775c-0.399,-4.8944 -0.5025,-9.7432 -0.703,-14.6433c-0.0076,-0.2081 0.4883,-0.3135 0.495,-0.134c0.2508,6.1066 0.5823,12.1705 0.9851,18.2723c0.3905,5.9109 1.3718,12.5096 0.0589,18.3265z"></path><path d="M201.06617,238.4482c0.0427,-0.1871 0.5434,-0.2612 0.4968,-0.0503c-0.2185,0.9576 -0.3192,2.2249 -0.9034,3.0485c-0.5159,0.7296 -1.653,1.9371 -0.6033,2.9412c0.6679,0.6346 1.3785,1.065 2.1841,1.4858c3.2689,1.7148 6.2006,4.0394 10.0358,4.2171c0.3363,0.0152 0.0199,0.3173 -0.1853,0.3059c-1.9503,-0.0912 -3.724,-0.6175 -5.4425,-1.5571c-1.9703,-1.0801 -4.1971,-2.1061 -6.0211,-3.4124c-0.7439,-0.5358 -1.9257,-1.4639 -1.3671,-2.5536c0.78,-1.5162 1.4165,-2.7312 1.806,-4.4251z"></path><path d="M224.11887,251.9838c-0.0238,0.1853 -0.5254,0.2708 -0.4969,0.0561c0.7258,-5.4825 2.4843,-9.9247 1.653,-15.6123c-0.6479,-4.4403 -0.3895,-9.1457 -1.4953,-13.5242c-0.0484,-0.191 0.4475,-0.3249 0.495,-0.1321c1.1951,4.7386 1.425,10.2828 1.7888,15.1411c0.3724,4.9391 -1.31,9.2711 -1.9446,14.0714z"></path><path d="M209.78147,257.7788c0.0218,-0.1852 0.5234,-0.2726 0.4968,-0.056c-0.1092,0.8996 4.0375,1.9 4.7367,2.2372c1.2246,0.5881 2.3902,1.3766 3.6366,1.9095c2.0834,0.8873 4.3102,-0.9367 5.9394,-1.9256c5.5851,-3.3953 0.4921,-9.3623 0.4399,-14.1721c-0.0019,-0.1815 0.4949,-0.2803 0.4968,-0.0561c0.0485,4.6294 3.2937,8.3087 1.577,13.0312c-0.2223,0.6089 -2.64,1.6406 -3.2281,2.0035c-0.9015,0.5586 -1.9893,1.4564 -3.0504,1.7423c-2.718,0.7277 -5.5623,-2.3161 -8.037,-3.0267c-0.8702,-0.2479 -3.1654,-0.3923 -3.0077,-1.6872z"></path><path d="M209.07277,222.3913c0.0038,-0.1814 0.5006,-0.2802 0.4949,-0.056c-0.0465,3.0077 -0.5025,6.2747 0.1321,9.2273c0.4284,1.9912 1.3604,3.5587 1.9997,5.4473c0.8161,2.4121 0.21,3.1711 -0.3154,5.5556c-0.6754,3.0856 0.9557,3.9264 2.2544,6.2748c0.1111,0.1985 -0.3696,0.36 -0.456,0.2023c-1.0089,-1.8259 -2.3513,-2.7607 -2.6144,-4.9115c-0.2983,-2.4396 1.9057,-4.294 0.6403,-6.9872c-2.3551,-5.0084 -2.2192,-9.3423 -2.1356,-14.7526z"></path><path d="M214.02887,246.6496c-0.0237,-0.2043 0.4731,-0.3192 0.495,-0.1321c0.2261,1.9219 -1.5124,2.4767 -2.2392,4.0242c-1.1001,2.3418 -0.9072,5.0597 -2.0225,7.4556c-0.076,0.1634 -0.5738,0.2062 -0.4655,-0.0256c1.063,-2.2781 1.1504,-4.5667 1.7926,-6.9559c0.4674,-1.7395 2.6857,-2.2658 2.4396,-4.3662z"></path></g></g></g></g></g></svg>